<svg width="330" height="53" viewBox="0 0 330 53" fill="none" xmlns="http://www.w3.org/2000/svg">
<g clip-path="url(#clip0_640_2029)">
<path d="M64.7839 28.059C64.7839 27.1261 64.7839 26.3234 64.7839 25.6492C64.7839 24.9768 64.7839 24.3479 64.7839 23.7625C64.7839 23.1789 64.7764 22.6217 64.7631 22.091C64.7498 21.5603 64.7309 20.9617 64.7044 20.3006C64.6778 19.6396 64.6532 18.888 64.6267 18.0456C64.6001 17.2052 64.5604 16.1873 64.5092 14.9937C64.8218 15.073 65.1269 15.1296 65.4263 15.1693C65.7257 15.209 66.135 15.2278 66.656 15.2278C67.2017 15.2278 67.6319 15.2071 67.9445 15.1693C68.2572 15.1296 68.5812 15.073 68.9203 14.9937C68.7896 17.3261 68.7062 19.6415 68.6664 21.9362C68.6266 24.2308 68.6077 26.5444 68.6077 28.8787C68.6077 30.6427 68.6134 32.1724 68.6266 33.4699C68.6399 34.7674 68.6589 35.9194 68.6854 36.9298C68.7119 37.9421 68.7441 38.843 68.782 39.6343C68.8218 40.4256 68.854 41.183 68.8805 41.9082C68.5167 41.8572 68.1321 41.8043 67.7304 41.7533C67.3268 41.7023 66.9042 41.6759 66.4628 41.6759C66.0213 41.6759 65.6423 41.7023 65.3315 41.7533C65.0208 41.8043 64.7063 41.8572 64.3955 41.9082C64.4732 40.8468 64.5319 39.8874 64.5717 39.0319C64.6115 38.1763 64.6494 37.2509 64.6892 36.2499C64.729 35.2527 64.7536 34.1177 64.7669 32.8467C64.7802 31.5756 64.7839 29.9798 64.7839 28.059Z" fill="black"/>
<path d="M81.0147 39.6871C81.9508 39.74 82.667 39.7665 83.1616 39.7665C83.6542 39.7665 84.1488 39.7665 84.6433 39.7665C85.1379 39.7665 85.7044 39.7589 86.3411 39.7457C86.9777 39.7325 87.6144 39.706 88.2529 39.6682C88.8915 39.6305 89.5149 39.5776 90.1269 39.5134C90.7371 39.4492 91.2638 39.3774 91.7072 39.3C91.6541 39.4813 91.6163 39.6682 91.5897 39.8628C91.5632 40.0592 91.5499 40.2972 91.5499 40.5823C91.5499 40.894 91.5632 41.1546 91.5897 41.3604C91.6163 41.5682 91.6541 41.7495 91.7072 41.9044C91.0819 41.8779 90.4907 41.8534 89.9318 41.8269C89.3728 41.8005 88.774 41.7759 88.1374 41.7495C87.5007 41.7231 86.7958 41.7061 86.0303 41.6909C85.2629 41.6796 84.3458 41.6721 83.279 41.6721C82.4207 41.6721 81.6988 41.6796 81.1133 41.6909C80.5278 41.7061 80.0029 41.7249 79.533 41.7495C79.065 41.7759 78.6159 41.8005 78.1877 41.8269C77.7594 41.8534 77.2838 41.8779 76.7646 41.9044C76.8423 40.6617 76.9068 39.4624 76.9598 38.3084C77.011 37.1564 77.0432 36.0006 77.0564 34.8466C77.0697 33.6946 77.083 32.5312 77.0962 31.3659C77.1076 30.1988 77.1152 28.9806 77.1152 27.7096C77.1152 26.3876 77.1019 25.058 77.0754 23.7227C77.0489 22.3875 77.0167 21.1429 76.9788 19.989C76.939 18.835 76.9068 17.8189 76.8821 16.9351C76.8556 16.055 76.8291 15.4053 76.8025 14.9917C77.1152 15.0446 77.4203 15.0975 77.7196 15.1485C78.019 15.1994 78.415 15.2259 78.9096 15.2259C79.4288 15.2259 79.8778 15.1994 80.2549 15.1485C80.632 15.0975 81.0034 15.0446 81.3672 14.9917C81.3141 16.6518 81.2686 18.1362 81.2307 19.445C81.1928 20.7538 81.1587 21.9852 81.1341 23.1392C81.1076 24.2931 81.0886 25.4281 81.0754 26.5424C81.0621 27.6586 81.0488 28.8503 81.0356 30.1213C81.0223 31.3924 81.0166 32.7994 81.0166 34.3405C81.0147 35.8854 81.0147 37.6663 81.0147 39.6871Z" fill="black"/>
<path d="M122.69 41.9044C122.69 41.2057 122.642 40.2519 122.553 39.047C122.461 37.8402 122.356 36.5314 122.243 35.1187C122.125 33.706 121.994 32.2537 121.85 30.7617C121.706 29.2715 121.576 27.9023 121.462 26.6577C121.344 25.4131 121.24 24.3631 121.147 23.5075C121.058 22.652 121 22.1326 120.973 21.9532C119.567 24.4953 118.193 27.0335 116.858 29.5756C115.514 32.1177 114.197 34.6824 112.894 37.2755C112.583 37.8968 112.327 38.4294 112.136 38.8713C111.939 39.3114 111.766 39.7061 111.607 40.0574C111.452 40.4087 111.315 40.726 111.2 41.0092C111.082 41.2944 110.97 41.5947 110.866 41.9044C110.607 41.8535 110.423 41.827 110.318 41.827C110.241 41.827 110.163 41.8346 110.085 41.8478C110.008 41.861 109.915 41.8799 109.811 41.9044C109.449 41.1018 109.14 40.4143 108.897 39.844C108.649 39.2736 108.342 38.6504 107.98 37.978C107.304 36.656 106.599 35.3075 105.871 33.9326C105.146 32.5577 104.424 31.1979 103.706 29.8476C102.991 28.501 102.281 27.1846 101.581 25.9004C100.878 24.6161 100.2 23.4187 99.5502 22.3026C99.3949 23.2884 99.2471 24.3725 99.103 25.551C98.959 26.7314 98.8283 27.9514 98.7146 29.2073C98.5971 30.467 98.4853 31.723 98.3811 32.9808C98.2769 34.2386 98.1916 35.4303 98.1272 36.5597C98.0628 37.6872 98.0154 38.7184 97.9927 39.6513C97.9643 40.5843 97.9529 41.3379 97.9529 41.9063C97.6421 41.8289 97.3807 41.7722 97.1722 41.7326C96.9638 41.6929 96.7307 41.674 96.4692 41.674C96.0789 41.674 95.7208 41.7005 95.3968 41.7515C95.0709 41.8025 94.8056 41.8553 94.5972 41.9063C94.6483 41.5966 94.7715 40.9091 94.9667 39.8459C95.1618 38.7826 95.3835 37.487 95.6298 35.9553C95.8762 34.4256 96.1433 32.7334 96.4295 30.8788C96.7156 29.026 96.9941 27.145 97.267 25.2413C97.5417 23.3338 97.7937 21.481 98.0268 19.6793C98.2618 17.8776 98.4569 16.2628 98.6123 14.8369C98.8757 14.8898 99.0936 14.9162 99.2793 14.9162C99.3835 14.9162 99.5048 14.9106 99.6488 14.8955C99.789 14.8841 99.9254 14.8634 100.056 14.8369C100.242 15.2788 100.589 16.0041 101.112 17.0164C101.633 18.0268 102.237 19.1939 102.925 20.516C103.617 21.838 104.365 23.2582 105.172 24.7767C105.976 26.2932 106.771 27.7569 107.552 29.1696C108.333 30.5841 109.055 31.874 109.718 33.0412C110.381 34.2065 110.921 35.1262 111.338 35.8024C112.378 33.8571 113.28 32.1857 114.047 30.7843C114.817 29.3849 115.48 28.1667 116.039 27.128C116.598 26.0911 117.079 25.1978 117.483 24.4443C117.886 23.6945 118.256 22.9995 118.597 22.363C118.934 21.7284 119.26 21.1128 119.571 20.5141C119.885 19.9192 120.238 19.2581 120.626 18.531C120.859 18.0645 121.056 17.683 121.212 17.3846C121.367 17.0862 121.504 16.8067 121.623 16.5499C121.739 16.2893 121.864 16.0324 121.992 15.7718C122.121 15.5111 122.267 15.2014 122.423 14.8369C122.551 14.8652 122.671 14.8841 122.775 14.8955C122.879 14.9106 122.997 14.9162 123.127 14.9162C123.232 14.9162 123.342 14.9106 123.457 14.8955C123.575 14.8841 123.713 14.8634 123.868 14.8369C124.101 16.8861 124.35 19.1033 124.609 21.4886C124.873 23.8739 125.142 26.2403 125.432 28.586C125.716 30.9335 125.998 33.1753 126.271 35.3132C126.542 37.453 126.807 39.3001 127.071 40.8563C127.097 40.9866 127.122 41.1301 127.148 41.285C127.175 41.4398 127.226 41.6476 127.304 41.9063C126.783 41.8289 126.379 41.7722 126.093 41.7326C125.809 41.6929 125.483 41.674 125.115 41.674C124.545 41.674 124.082 41.7005 123.732 41.7515C123.381 41.8025 123.025 41.8535 122.69 41.9044Z" fill="black"/>
<path d="M146.257 31.7173C145.867 32.6238 145.327 33.927 144.637 35.6248C143.95 37.3227 143.279 39.4172 142.627 41.9045C142.394 41.8535 142.159 41.8006 141.926 41.7496C141.691 41.6986 141.393 41.6722 141.028 41.6722C140.662 41.6722 140.351 41.6986 140.092 41.7496C139.83 41.8006 139.571 41.8535 139.311 41.9045C139.883 40.6618 140.514 39.2793 141.204 37.7646C141.892 36.2462 142.608 34.6786 143.351 33.0582C144.092 31.4397 144.838 29.7853 145.594 28.0987C146.348 26.4141 147.07 24.7748 147.76 23.1808C148.45 21.5849 149.1 20.0646 149.712 18.6104C150.322 17.158 150.862 15.8492 151.33 14.6821C151.485 14.7085 151.635 14.7331 151.777 14.7595C151.919 14.7859 152.095 14.7992 152.304 14.7992C152.486 14.7992 152.635 14.7916 152.753 14.7784C152.87 14.7652 153.007 14.7331 153.162 14.6802C153.657 16.057 154.288 17.6698 155.055 19.5226C155.821 21.3753 156.641 23.3073 157.513 25.3168C158.384 27.3244 159.256 29.315 160.128 31.2867C160.999 33.2565 161.78 35.0262 162.468 36.5956C163.157 38.165 163.73 39.4342 164.184 40.4087C164.639 41.3813 164.866 41.878 164.866 41.9045C164.527 41.8535 164.184 41.8006 163.832 41.7496C163.481 41.6986 163.059 41.6722 162.564 41.6722C162.045 41.6722 161.588 41.6986 161.198 41.7496C160.808 41.8006 160.431 41.8535 160.065 41.9045C159.39 39.5456 158.686 37.5304 157.96 35.8571C157.23 34.1857 156.618 32.8051 156.126 31.7173H146.257ZM151.133 20.0873L147.036 29.7305H155.349L151.133 20.0873Z" fill="black"/>
<path d="M191.91 36.6937C191.805 37.1337 191.72 37.5889 191.656 38.0554C191.591 38.5218 191.533 39.1168 191.479 39.8439C190.022 40.6994 188.476 41.334 186.837 41.7495C185.198 42.165 183.521 42.3708 181.805 42.3708C179.542 42.3708 177.524 42.0214 175.756 41.3208C173.986 40.622 172.484 39.6475 171.25 38.4048C170.015 37.1602 169.079 35.6889 168.44 33.9892C167.804 32.2932 167.485 30.4443 167.485 28.4461C167.485 26.5802 167.783 24.8106 168.383 23.1373C168.98 21.4639 169.892 20.0059 171.114 18.7632C172.338 17.5186 173.884 16.5328 175.756 15.8076C177.628 15.0805 179.853 14.7197 182.428 14.7197C183.599 14.7197 184.679 14.7896 185.666 14.9331C186.655 15.0748 187.553 15.2504 188.359 15.4563C189.166 15.664 189.875 15.8907 190.487 16.1362C191.097 16.3836 191.625 16.597 192.067 16.7783C191.91 17.1674 191.788 17.5111 191.695 17.8095C191.605 18.1079 191.527 18.3931 191.462 18.665C191.398 18.937 191.339 19.2297 191.286 19.5395C191.235 19.8511 191.182 20.2269 191.131 20.6688H190.74C190.479 20.1249 190.075 19.5942 189.53 19.073C188.984 18.5555 188.34 18.0947 187.597 17.6943C186.856 17.292 186.03 16.9747 185.119 16.7405C184.207 16.5063 183.26 16.3893 182.271 16.3893C180.734 16.3893 179.337 16.6631 178.076 17.207C176.814 17.7509 175.735 18.5423 174.837 19.5791C173.939 20.6178 173.242 21.8813 172.749 23.3714C172.253 24.8634 172.006 26.5424 172.006 28.4084C172.006 30.4311 172.298 32.2007 172.884 33.7191C173.471 35.2357 174.25 36.4935 175.226 37.4907C176.202 38.4879 177.325 39.2414 178.6 39.7457C179.874 40.2518 181.2 40.503 182.581 40.503C183.021 40.503 183.588 40.4633 184.279 40.3859C184.967 40.3085 185.715 40.1328 186.523 39.8609C187.33 39.5889 188.162 39.1885 189.02 38.6559C189.878 38.1234 190.684 37.4057 191.438 36.4954L191.91 36.6937Z" fill="black"/>
<path d="M200.455 31.7173C200.065 32.6238 199.525 33.927 198.835 35.6248C198.147 37.3227 197.477 39.4172 196.825 41.9045C196.592 41.8535 196.357 41.8006 196.124 41.7496C195.889 41.6986 195.591 41.6722 195.225 41.6722C194.86 41.6722 194.549 41.6986 194.289 41.7496C194.028 41.8006 193.768 41.8535 193.509 41.9045C194.081 40.6618 194.712 39.2793 195.402 37.7646C196.09 36.2462 196.806 34.6786 197.549 33.0582C198.289 31.4397 199.036 29.7853 199.792 28.0987C200.546 26.4141 201.268 24.7748 201.958 23.1808C202.648 21.5849 203.297 20.0646 203.909 18.6104C204.52 17.158 205.06 15.8492 205.528 14.6821C205.683 14.7085 205.833 14.7331 205.975 14.7595C206.117 14.7859 206.293 14.7992 206.502 14.7992C206.683 14.7992 206.833 14.7916 206.951 14.7784C207.068 14.7652 207.205 14.7331 207.36 14.6802C207.854 16.057 208.485 17.6698 209.253 19.5226C210.018 21.3753 210.839 23.3073 211.71 25.3168C212.582 27.3244 213.454 29.315 214.325 31.2867C215.197 33.2565 215.978 35.0262 216.665 36.5956C217.355 38.165 217.927 39.4342 218.382 40.4087C218.837 41.3813 219.064 41.878 219.064 41.9045C218.725 41.8535 218.382 41.8006 218.03 41.7496C217.679 41.6986 217.257 41.6722 216.762 41.6722C216.243 41.6722 215.786 41.6986 215.396 41.7496C215.006 41.8006 214.628 41.8535 214.263 41.9045C213.588 39.5456 212.883 37.5304 212.158 35.8571C211.428 34.1857 210.816 32.8051 210.323 31.7173H200.455ZM205.331 20.0873L201.234 29.7305H209.547L205.331 20.0873Z" fill="black"/>
<path d="M247.824 27.7096C247.824 30.1723 247.414 32.2989 246.596 34.0874C245.777 35.8759 244.684 37.349 243.32 38.5011C241.953 39.655 240.379 40.5105 238.598 41.0677C236.817 41.6267 234.948 41.9024 232.999 41.9024C232.894 41.9024 232.565 41.8968 232.004 41.8836C231.445 41.8703 230.82 41.8496 230.132 41.825C229.444 41.8005 228.779 41.7816 228.142 41.7684C227.504 41.7532 227.056 41.7476 226.795 41.7476C226.535 41.7476 226.276 41.7476 226.014 41.7476C225.755 41.7476 225.469 41.7532 225.158 41.7684C224.845 41.7816 224.481 41.8005 224.064 41.825C223.648 41.8496 223.166 41.876 222.621 41.9024C222.698 40.9185 222.763 39.9723 222.816 39.0639C222.869 38.1554 222.914 37.1337 222.952 35.9911C222.992 34.8504 223.024 33.5151 223.051 31.9854C223.077 30.4556 223.091 28.5764 223.091 26.3479C223.091 24.8936 223.083 23.6774 223.07 22.6896C223.056 21.7057 223.037 20.8105 223.013 20.0059C222.986 19.2033 222.954 18.4119 222.914 17.6338C222.875 16.8557 222.829 15.9473 222.778 14.9124C224.911 14.9898 227.045 15.0294 229.179 15.0294C230.92 15.0294 232.481 15.0446 233.861 15.0691C235.24 15.0937 236.494 15.1975 237.626 15.3788C238.757 15.5601 239.797 15.8453 240.746 16.2344C241.696 16.6234 242.624 17.1806 243.538 17.9077C244.396 18.58 245.097 19.3128 245.643 20.1041C246.19 20.8955 246.626 21.7132 246.95 22.5555C247.274 23.3979 247.501 24.2515 247.632 25.1203C247.759 25.9909 247.824 26.854 247.824 27.7096ZM243.494 28.1779C243.494 27.4508 243.441 26.6727 243.337 25.8436C243.232 25.0164 243.037 24.1854 242.751 23.3563C242.465 22.5272 242.061 21.7302 241.54 20.9635C241.019 20.1967 240.356 19.5054 239.551 18.8822C238.874 18.3647 238.16 17.9681 237.404 17.6962C236.65 17.4223 235.882 17.2221 235.102 17.0937C234.321 16.9653 233.535 16.8859 232.741 16.8595C231.947 16.8331 231.161 16.8198 230.38 16.8198C229.912 16.8198 229.529 16.8198 229.23 16.8198C228.93 16.8198 228.663 16.8274 228.43 16.8406C228.195 16.8538 227.968 16.8746 227.748 16.8973C227.526 16.9256 227.259 16.9502 226.948 16.9766C226.869 18.7651 226.818 20.6197 226.791 22.5367C226.765 24.4574 226.751 26.3082 226.751 28.0967C226.751 29.8852 226.751 31.3262 226.751 32.4141C226.751 33.5038 226.757 34.4368 226.772 35.213C226.785 35.9911 226.799 36.7258 226.812 37.4113C226.825 38.0988 226.844 38.9222 226.869 39.8816C227.545 39.9591 228.176 40.0176 228.762 40.0573C229.347 40.0969 230.109 40.1139 231.045 40.1139C231.46 40.1139 231.994 40.1083 232.644 40.095C233.296 40.0818 233.991 40.0176 234.732 39.8986C235.475 39.7815 236.222 39.5946 236.978 39.3358C237.732 39.0752 238.446 38.7126 239.124 38.2461C240.034 37.5983 240.775 36.8599 241.349 36.0289C241.921 35.2017 242.363 34.3329 242.675 33.4226C242.986 32.5161 243.2 31.6095 243.32 30.7011C243.433 29.7965 243.494 28.9542 243.494 28.1779Z" fill="black"/>
<path d="M257.227 26.737C258.789 26.7653 260.331 26.771 261.851 26.7578C263.374 26.7446 264.9 26.6464 266.436 26.4669C266.385 26.6728 266.345 26.8749 266.319 27.0694C266.292 27.2639 266.279 27.5019 266.279 27.789C266.279 27.9948 266.298 28.1969 266.336 28.3914C266.376 28.586 266.408 28.7862 266.434 28.992C265.421 28.8636 264.365 28.7673 263.274 28.7012C262.181 28.637 261.218 28.6049 260.386 28.6049C259.867 28.6049 259.333 28.6105 258.787 28.6237C258.241 28.637 257.72 28.6577 257.226 28.6823C257.199 29.5114 257.182 30.3613 257.169 31.23C257.155 32.0988 257.148 32.9468 257.148 33.7777C257.148 34.2971 257.155 34.8467 257.169 35.4303C257.182 36.0157 257.195 36.5918 257.209 37.1621C257.222 37.7325 257.235 38.25 257.248 38.7165C257.262 39.1829 257.267 39.5456 257.267 39.8062C258.516 39.8062 259.962 39.7854 261.599 39.7476C263.238 39.708 265.214 39.572 267.53 39.3397C267.478 39.5456 267.439 39.7476 267.412 39.9422C267.386 40.1367 267.372 40.3747 267.372 40.6617C267.372 40.9488 267.386 41.1735 267.412 41.3416C267.439 41.5097 267.477 41.6967 267.53 41.9044C266.62 41.776 265.716 41.7061 264.818 41.691C263.92 41.6797 263.016 41.6721 262.105 41.6721C260.596 41.6721 259.086 41.6986 257.578 41.7496C256.07 41.8006 254.56 41.8534 253.051 41.9044C253.102 41.1792 253.155 40.4408 253.207 39.6872C253.258 38.9374 253.305 38.0498 253.343 37.0243C253.383 36.0006 253.415 34.7693 253.442 33.3302C253.468 31.8891 253.481 30.1082 253.481 27.9816C253.481 27.0222 253.474 25.9854 253.461 24.8711C253.447 23.7568 253.428 22.6274 253.404 21.4886C253.377 20.3479 253.345 19.226 253.305 18.125C253.265 17.022 253.22 15.9908 253.169 15.0314C254.548 15.1599 255.907 15.2316 257.246 15.2448C258.586 15.2599 259.945 15.2637 261.324 15.2637C262.311 15.2637 263.3 15.2524 264.288 15.226C265.275 15.1995 266.264 15.1334 267.253 15.0295C267.2 15.2373 267.16 15.4526 267.135 15.6717C267.107 15.8926 267.096 16.1325 267.096 16.3912C267.096 16.6764 267.109 16.903 267.135 17.0711C267.16 17.2411 267.198 17.4281 267.253 17.6358C266.889 17.5584 266.516 17.4942 266.141 17.4413C265.764 17.3903 265.341 17.3374 264.871 17.2845C264.403 17.2335 263.865 17.1939 263.253 17.1674C262.643 17.141 261.908 17.1278 261.049 17.1278C260.346 17.1278 259.748 17.1278 259.255 17.1278C258.762 17.1278 258.097 17.1542 257.263 17.2052C257.237 17.5943 257.22 17.938 257.207 18.2364C257.193 18.5348 257.186 18.8389 257.186 19.1486C257.186 19.4602 257.186 19.8172 257.186 20.2175C257.186 20.6198 257.186 21.1071 257.186 21.6756C257.186 22.2969 257.186 22.8163 257.186 23.2318C257.186 23.6473 257.186 24.0288 257.186 24.3781C257.186 24.7275 257.193 25.0769 257.207 25.4282C257.22 25.7795 257.227 26.2177 257.227 26.737Z" fill="black"/>
<path d="M299.408 41.9044C299.408 41.2057 299.363 40.2519 299.272 39.047C299.181 37.8402 299.076 36.5314 298.961 35.1187C298.843 33.706 298.713 32.2537 298.571 30.7617C298.427 29.2715 298.296 27.9023 298.18 26.6577C298.065 25.4131 297.959 24.3631 297.868 23.5075C297.777 22.652 297.718 22.1326 297.691 21.9532C296.287 24.4953 294.914 27.0335 293.576 29.5756C292.234 32.1177 290.915 34.6824 289.614 37.2755C289.301 37.8968 289.047 38.4294 288.854 38.8713C288.661 39.3133 288.484 39.7061 288.327 40.0574C288.172 40.4087 288.035 40.726 287.918 41.0092C287.8 41.2944 287.69 41.5947 287.586 41.9044C287.325 41.8535 287.143 41.827 287.039 41.827C286.961 41.827 286.883 41.8346 286.806 41.8478C286.728 41.861 286.635 41.8799 286.531 41.9044C286.167 41.1018 285.86 40.4143 285.616 39.844C285.367 39.2736 285.062 38.6504 284.699 37.978C284.022 36.656 283.319 35.3075 282.592 33.9326C281.864 32.5577 281.142 31.1979 280.426 29.8476C279.709 28.501 279.001 27.1846 278.3 25.9004C277.597 24.6161 276.92 23.4187 276.27 22.3026C276.115 23.2884 275.965 24.3725 275.823 25.551C275.679 26.7314 275.548 27.9514 275.433 29.2073C275.315 30.467 275.205 31.723 275.101 32.9808C274.995 34.2386 274.912 35.4303 274.847 36.5597C274.781 37.6872 274.736 38.7184 274.711 39.6513C274.686 40.5843 274.671 41.3379 274.671 41.9063C274.359 41.8289 274.097 41.7722 273.89 41.7326C273.682 41.6929 273.449 41.674 273.187 41.674C272.799 41.674 272.439 41.7005 272.117 41.7515C271.791 41.8025 271.526 41.8553 271.315 41.9063C271.367 41.5966 271.492 40.9091 271.687 39.8459C271.882 38.7845 272.102 37.487 272.35 35.9553C272.598 34.4256 272.864 32.7334 273.15 30.8788C273.436 29.026 273.716 27.145 273.989 25.2413C274.262 23.3338 274.514 21.481 274.749 19.6793C274.982 17.8776 275.179 16.2628 275.334 14.8369C275.596 14.8898 275.816 14.9162 275.999 14.9162C276.104 14.9162 276.227 14.9106 276.369 14.8955C276.511 14.8841 276.647 14.8634 276.778 14.8369C276.962 15.2788 277.311 16.0041 277.834 17.0164C278.353 18.0268 278.959 19.1939 279.647 20.516C280.337 21.838 281.085 23.2582 281.892 24.7767C282.698 26.2932 283.492 27.7569 284.272 29.1696C285.053 30.5841 285.775 31.874 286.44 33.0412C287.103 34.2065 287.643 35.1262 288.058 35.8024C289.098 33.8571 290 32.1857 290.77 30.7843C291.537 29.3849 292.2 28.1667 292.761 27.128C293.32 26.0911 293.801 25.1978 294.205 24.4443C294.608 23.6945 294.978 22.9995 295.317 22.363C295.654 21.7284 295.98 21.1128 296.293 20.5141C296.606 19.9192 296.958 19.2581 297.346 18.531C297.581 18.0645 297.777 17.683 297.934 17.3846C298.089 17.0862 298.226 16.8067 298.343 16.5499C298.461 16.2893 298.584 16.0324 298.713 15.7718C298.843 15.5111 298.987 15.2014 299.143 14.8369C299.273 14.8652 299.391 14.8841 299.495 14.8955C299.599 14.9106 299.717 14.9162 299.848 14.9162C299.952 14.9162 300.062 14.9106 300.179 14.8955C300.297 14.8841 300.433 14.8634 300.59 14.8369C300.823 16.8861 301.072 19.1033 301.331 21.4886C301.593 23.8739 301.864 26.2403 302.152 28.586C302.438 30.9335 302.718 33.1753 302.991 35.3132C303.264 37.453 303.529 39.3001 303.791 40.8563C303.817 40.9866 303.842 41.1301 303.868 41.285C303.895 41.4398 303.946 41.6476 304.024 41.9063C303.505 41.8289 303.101 41.7722 302.815 41.7326C302.529 41.6929 302.203 41.674 301.837 41.674C301.265 41.674 300.805 41.7005 300.454 41.7515C300.103 41.8025 299.747 41.8535 299.408 41.9044Z" fill="black"/>
<path d="M320.441 32.8825C320.441 33.2452 320.447 33.7777 320.46 34.4784C320.473 35.1772 320.486 35.9496 320.5 36.792C320.513 37.6343 320.539 38.503 320.577 39.3982C320.617 40.2934 320.663 41.1301 320.714 41.9063C320.323 41.7779 319.965 41.708 319.641 41.6929C319.315 41.6816 319.024 41.674 318.764 41.674C318.165 41.674 317.697 41.6872 317.36 41.7137C317.021 41.7401 316.708 41.8043 316.424 41.9082C316.502 41.1055 316.558 40.3671 316.6 39.691C316.64 39.0186 316.663 38.2915 316.678 37.5153C316.691 36.7372 316.691 35.8363 316.678 34.8108C316.663 33.7872 316.657 32.535 316.657 31.0581C315.565 29.2432 314.629 27.6757 313.849 26.3536C313.068 25.0316 312.386 23.8833 311.8 22.9107C311.215 21.9381 310.707 21.1033 310.277 20.4026C309.847 19.7038 309.458 19.0617 309.108 18.4762C308.755 17.8927 308.418 17.3299 308.094 16.7841C307.768 16.2401 307.397 15.6433 306.982 14.9955C307.501 15.1259 307.996 15.1957 308.464 15.209C308.932 15.2222 309.269 15.2297 309.477 15.2297C310.154 15.2297 310.726 15.2033 311.194 15.1523C311.662 15.1013 312.001 15.0484 312.208 14.9955C313.015 17.0182 313.879 18.8804 314.804 20.5764C315.725 22.2742 316.604 23.8493 317.438 25.3017C317.644 25.6643 317.854 26.0212 318.061 26.3706C318.269 26.7219 318.465 27.0392 318.648 27.3244C318.83 27.6096 318.986 27.8362 319.116 28.0043C319.245 28.1724 319.349 28.2573 319.427 28.2573C319.478 28.2573 319.577 28.1535 319.721 27.9457C319.863 27.7399 320.018 27.5057 320.189 27.2469C320.357 26.9863 320.513 26.7295 320.657 26.4688C320.799 26.2082 320.911 26.0156 320.988 25.8853C322.002 24.1213 322.965 22.3384 323.874 20.5367C324.784 18.735 325.631 16.886 326.411 14.9937C326.698 15.0994 326.997 15.1617 327.31 15.1882C327.622 15.2146 327.933 15.2278 328.246 15.2278C328.609 15.2278 328.916 15.2071 329.163 15.1693C329.409 15.1296 329.688 15.073 330 14.9937C329.739 15.3563 329.382 15.8832 328.928 16.5688C328.473 17.2562 327.965 18.04 327.406 18.922C326.845 19.8039 326.267 20.7294 325.669 21.7039C325.072 22.6765 324.484 23.6284 323.912 24.5632C323.34 25.4962 322.821 26.365 322.353 27.1676C321.885 27.9722 321.508 28.6332 321.22 29.1525C321.038 29.4642 320.894 29.7475 320.789 30.0081C320.685 30.2668 320.583 30.5142 320.479 30.7465C320.452 31.0317 320.439 31.3566 320.439 31.7211C320.439 32.0856 320.441 32.4671 320.441 32.8825Z" fill="black"/>
<path d="M47.6299 18.6744C46.9781 19.3562 46.3964 19.9644 45.6233 20.7727C46.9478 21.9531 48.242 23.107 49.4717 24.2024C47.467 26.2081 45.6101 28.0646 43.683 29.991C42.5689 28.8087 41.3865 27.5528 40.1643 26.2534C39.4538 27.0788 38.9308 27.6831 38.3093 28.4027C39.5049 29.5868 40.8427 30.9145 42.1804 32.2422C42.7299 32.788 43.2074 33.4434 43.8403 33.8645C45.8734 35.2187 45.9587 37.1583 45.6328 39.2716C42.5783 36.1856 39.522 33.0996 36.4789 30.0231C35.6698 30.8579 35.1146 31.4339 34.5291 32.0382C35.6812 33.1166 36.9394 34.2951 38.099 35.3811C35.9938 37.485 34.1142 39.3623 32.1492 41.3264C31.7438 40.8127 31.2208 40.146 30.6448 39.4151C31.7343 38.4142 33.0076 37.2432 34.3946 35.9703C33.5419 35.2187 32.9185 34.6691 32.1303 33.9722C31.0351 35.1677 29.8622 36.4462 28.7026 37.7135C27.9882 36.9807 27.4008 36.3764 26.8438 35.8041C32.4316 30.2592 38.1122 24.6217 43.8858 18.8935C41.2122 16.2476 38.7565 13.817 36.045 11.1351C37.5097 11.1351 38.6144 11.12 39.7191 11.1483C39.9218 11.154 40.1605 11.2975 40.3121 11.4486C42.7451 13.8377 45.1648 16.2363 47.6299 18.6744ZM45.4452 24.4366C44.8862 23.8473 44.3235 23.2543 43.8005 22.7047C43.196 23.2997 42.6295 23.8606 42.1008 24.3818C42.6598 24.9862 43.2169 25.5886 43.7228 26.1363C44.3462 25.5207 44.9146 24.9597 45.4452 24.4366Z" fill="black"/>
<path d="M1.72808 33.7324C2.4879 33.1432 3.13024 32.6427 3.88438 32.0572C2.46706 30.739 1.20132 29.5624 0 28.4462C2.05967 26.3971 3.94502 24.5198 5.91563 22.5594C7.01841 23.736 8.17994 24.9768 9.35283 26.229C10.0217 25.5 10.575 24.8937 11.2268 24.1817C9.27514 22.2554 7.25906 20.1703 5.13117 18.2062C4.13829 17.2883 3.63237 16.3289 3.81806 14.9861C3.89575 14.4309 3.83133 13.8567 3.83133 13.19C6.97862 16.3572 10.0217 19.4206 13.1974 22.6161C13.9061 21.7889 14.4461 21.1581 15.1434 20.3403C13.9478 19.2789 12.6536 18.1306 11.4087 17.0258C13.4475 15.0012 15.3101 13.1504 17.1443 11.3279C17.6673 11.8756 18.2623 12.4988 18.9975 13.2675C17.8189 14.3289 16.5323 15.4885 15.2002 16.6896C15.962 17.4186 16.5418 17.9701 17.1784 18.5764C18.3703 17.3185 19.5621 16.0607 20.7672 14.7878C21.546 15.5678 22.1637 16.1854 22.8345 16.8558C17.1822 22.4839 11.5129 28.127 5.70909 33.9043C8.24815 36.4105 10.6849 38.8166 13.2562 41.3567C11.1794 41.5041 9.43999 41.7609 7.94119 39.9837C6.12595 37.8345 3.97533 35.9648 1.72808 33.7324ZM4.03028 28.0458C4.66505 28.7673 5.1937 29.366 5.69393 29.9326C6.33628 29.3358 6.92178 28.7899 7.37464 28.3688C6.78914 27.6757 6.2567 27.043 5.76404 26.4594C5.09138 27.0751 4.52483 27.5945 4.03028 28.0458Z" fill="black"/>
<path d="M34.3853 16.7557C33.6577 17.5451 33.1101 18.1362 32.464 18.8388C33.6824 19.9625 34.9576 21.1354 36.2991 22.3705C35.5052 23.1278 34.8685 23.7322 34.1996 24.3705C28.5607 18.7406 22.9141 13.1031 17.1273 7.32774C14.6262 9.84715 12.1667 12.3212 9.47035 15.0352C9.47035 13.6055 9.45519 12.5384 9.48361 11.4732C9.48929 11.2693 9.62004 11.0237 9.77162 10.8727C12.1989 8.43258 14.6394 6.00383 17.1235 3.52598C17.7962 4.16432 18.4044 4.74035 19.1207 5.42025C20.3428 4.10767 21.5233 2.83663 22.681 1.59204C24.6933 3.59774 26.5806 5.4788 28.5948 7.48639C27.3688 8.64977 26.1107 9.84337 24.8089 11.0785C25.4645 11.6999 26.0462 12.2513 26.8951 13.0559C27.7402 12.1135 28.5929 11.1238 29.4891 10.1758C30.3418 9.27679 31.3631 8.51001 32.0926 7.52605C33.563 5.54867 35.4464 4.95565 38.0007 5.55812C34.8609 8.68943 31.7705 11.7716 28.6573 14.8746C29.3053 15.5073 29.8795 16.0663 30.5218 16.6952C31.6928 15.4488 32.8771 14.1872 34.0291 12.9596C36.0566 14.9974 37.9305 16.8841 39.8254 18.7878C39.3062 19.3147 38.6923 19.9361 37.9495 20.6896C36.7501 19.3657 35.5867 18.0815 34.3853 16.7557ZM22.825 5.56567C22.2225 6.16436 21.6502 6.73094 21.186 7.19176C21.7905 7.83011 22.357 8.4288 22.8307 8.92928C23.4219 8.42314 24.0264 7.90566 24.6744 7.35041C24.0377 6.73472 23.4844 6.20213 22.825 5.56567Z" fill="black"/>
<path d="M22.7719 39.6438C20.7842 41.6363 18.7264 43.5683 16.8335 45.6515C15.7762 46.8149 14.662 47.4003 13.1026 47.1605C12.6516 47.0925 12.1817 47.1491 11.78 47.1491C14.8591 44.099 17.9439 41.0433 21.1385 37.878C20.2442 37.1339 19.6284 36.622 18.9955 36.0951C17.9514 37.2018 16.7691 38.4521 15.6985 39.5853C13.5915 37.4776 11.7213 35.6079 9.8833 33.7684C10.2831 33.3869 10.8876 32.8127 11.5659 32.1668C12.6005 33.2735 13.7772 34.5295 15.0183 35.8553C15.8274 35.0394 16.4129 34.4483 17.1026 33.7495C15.8084 32.5578 14.5578 31.4038 13.3224 30.2669C14.0386 29.5568 14.6317 28.9675 15.2077 28.3953C20.805 33.9761 26.4687 39.6212 32.1778 45.3134C34.8476 42.6958 37.3184 40.2727 39.9693 37.674C39.9693 38.9696 39.9901 40.0669 39.9541 41.1623C39.9465 41.3983 39.7836 41.6741 39.6092 41.8497C37.2407 44.2445 34.8589 46.6222 32.4165 49.0699C31.7571 48.4485 31.1508 47.8763 30.3417 47.1133C29.201 48.4523 28.0774 49.7705 27.0295 51.0019C24.9225 48.8942 23.075 47.0453 21.0305 44.9999C22.1996 44.0065 23.5393 42.8677 24.9168 41.6986C24.0281 40.8525 23.4483 40.2954 22.7719 39.6438ZM24.8846 45.2775C25.4701 45.846 26.0404 46.4031 26.5672 46.9168C27.2095 46.354 27.8329 45.8063 28.2631 45.4305C27.651 44.7412 27.1224 44.1444 26.5539 43.5022C26.031 44.0575 25.5023 44.6184 24.8846 45.2775Z" fill="black"/>
<path d="M25.3375 34.0421C22.9008 31.6058 20.3939 29.0977 17.9458 26.6482C20.375 24.2062 22.8761 21.6925 25.3337 19.2222C27.8083 21.6944 30.319 24.2024 32.7785 26.6595C30.3114 29.1071 27.797 31.602 25.3375 34.0421ZM25.5061 23.2411C24.2972 24.4479 23.0808 25.6623 22.0348 26.7048C23.1281 27.787 24.3238 28.9712 25.3849 30.0212C26.4952 28.9466 27.7136 27.7681 28.8713 26.6482C27.7117 25.4753 26.5218 24.2704 25.5061 23.2411Z" fill="black"/>
<path d="M49.472 0H0.416992V1.01418H49.472V0Z" fill="black"/>
<path d="M49.055 51.9858H0V53H49.055V51.9858Z" fill="black"/>
</g>
<defs>
<clipPath id="clip0_640_2029">
<rect width="330" height="53" fill="white"/>
</clipPath>
</defs>
</svg>
